<svg width="22" height="24" viewBox="0 0 22 24" fill="none" xmlns="http://www.w3.org/2000/svg">
<path fill-rule="evenodd" clip-rule="evenodd" d="M3.22183 20.2066C2.29761 19.2157 2.03247 17.7041 2.32231 15.7207C0.809377 14.538 0 13.2681 0 11.8667C0 10.4653 0.809377 9.19536 2.32231 8.01267C2.03247 6.0293 2.29761 4.51771 3.22183 3.52675C4.14604 2.53579 5.55582 2.25149 7.40558 2.56227C8.50862 0.940067 9.69297 0.0722351 11 0.0722351C12.307 0.0722351 13.4914 0.940067 14.5944 2.56227C16.4442 2.25149 17.854 2.53579 18.7782 3.52675C19.7024 4.51771 19.9675 6.0293 19.6777 8.01267C21.1906 9.19536 22 10.4653 22 11.8667C22 13.2681 21.1906 14.538 19.6777 15.7207C19.9675 17.7041 19.7024 19.2157 18.7782 20.2066C17.854 21.1976 16.4442 21.4819 14.5944 21.1711C13.4914 22.7933 12.307 23.6611 11 23.6611C9.69297 23.6611 8.50862 22.7933 7.40558 21.1711C5.55582 21.4819 4.14604 21.1976 3.22183 20.2066ZM7.65258 18.9412C8.05851 18.848 8.47594 19.0334 8.7015 19.407C9.58226 20.8661 10.3676 21.5167 11 21.5167C11.6324 21.5167 12.4177 20.8661 13.2985 19.407C13.5241 19.0334 13.9415 18.848 14.3474 18.9412C15.9325 19.3052 16.9168 19.1697 17.364 18.6903C17.8111 18.2108 17.9374 17.1554 17.598 15.4559C17.5111 15.0206 17.684 14.573 18.0325 14.3312C19.3933 13.3868 20 12.5447 20 11.8667C20 11.1886 19.3933 10.3466 18.0325 9.40218C17.684 9.16033 17.5111 8.71275 17.598 8.27751C17.9374 6.57799 17.8111 5.52254 17.364 5.0431C16.9168 4.56365 15.9325 4.4282 14.3474 4.79217C13.9415 4.88539 13.5241 4.7 13.2985 4.32632C12.4177 2.86722 11.6324 2.21668 11 2.21668C10.3676 2.21668 9.58226 2.86722 8.7015 4.32632C8.47594 4.7 8.05851 4.88539 7.65258 4.79217C6.06755 4.4282 5.08319 4.56365 4.63604 5.0431C4.18889 5.52254 4.06256 6.57799 4.40202 8.27751C4.48895 8.71275 4.31605 9.16033 3.96754 9.40218C2.60672 10.3466 2 11.1886 2 11.8667C2 12.5447 2.60672 13.3868 3.96754 14.3312C4.31605 14.573 4.48895 15.0206 4.40202 15.4559C4.06256 17.1554 4.18889 18.2108 4.63604 18.6903C5.08319 19.1697 6.06755 19.3052 7.65258 18.9412ZM14.2929 7.89184L10 12.4948L7.70711 10.0363L6.29289 11.5526L10 15.5275L15.7071 9.40819L14.2929 7.89184Z" fill="#00FF19"/>
</svg>
