<svg width="28" height="24" viewBox="0 0 28 24" fill="none" xmlns="http://www.w3.org/2000/svg">
<path fill-rule="evenodd" clip-rule="evenodd" d="M0.666687 3.57777C0.666687 5.15689 1.86059 6.43703 3.33335 6.43703C4.80611 6.43703 6.00002 5.15689 6.00002 3.57777C6.00002 1.99864 4.80611 0.718506 3.33335 0.718506C1.86059 0.718506 0.666687 1.99864 0.666687 3.57777ZM27.3334 2.14813V5.00739H8.66669V2.14813H27.3334ZM27.3334 10.7259H8.66669V13.5852H27.3334V10.7259ZM27.3334 22.163V19.3037H8.66669V22.163H27.3334ZM0.666687 20.7333C0.666687 22.3124 1.86059 23.5926 3.33335 23.5926C4.80611 23.5926 6.00002 22.3124 6.00002 20.7333C6.00002 19.1542 4.80611 17.8741 3.33335 17.8741C1.86059 17.8741 0.666687 19.1542 0.666687 20.7333ZM3.33335 15.0148C1.86059 15.0148 0.666687 13.7347 0.666687 12.1555C0.666687 10.5764 1.86059 9.29628 3.33335 9.29628C4.80611 9.29628 6.00002 10.5764 6.00002 12.1555C6.00002 13.7347 4.80611 15.0148 3.33335 15.0148Z" fill="white"/>
</svg>
