<svg width="46" height="50" viewBox="0 0 46 50" fill="none" xmlns="http://www.w3.org/2000/svg">
<path fill-rule="evenodd" clip-rule="evenodd" d="M21.5781 20.6216C18.1997 20.209 13.8431 21.857 10.8361 25.1518C7.08145 29.2658 7.20458 34.3784 10.742 38.2544C14.2793 42.1303 18.9454 42.2652 22.7001 38.1512C25.6688 34.8983 27.1726 30.2041 26.8481 26.5229C26.7008 24.8522 26.1768 23.3901 25.2424 22.3662C24.3344 21.3713 23.049 20.8012 21.5781 20.6216ZM29.1163 21.1187L32.5321 17.3759L33.8157 18.3077C34.925 19.113 36.4163 18.9578 37.3706 17.9122C38.4741 16.7031 38.4741 14.7428 37.3706 13.5338C36.9308 13.0519 36.375 12.7517 35.7739 12.658L34.373 12.4399L34.174 10.905C34.0885 10.2463 33.8145 9.63729 33.3747 9.1554C32.2713 7.94635 30.4822 7.94635 29.3788 9.1554C28.4245 10.201 28.2828 11.8351 29.0178 13.0506L29.8682 14.457L26.4684 18.1822C26.9839 18.545 27.4652 18.9664 27.9052 19.4485C28.37 19.9577 28.7729 20.5175 29.1163 21.1187ZM22.5791 16.6058L25.1653 13.7721C24.3294 11.2034 24.8746 8.25285 26.7148 6.23648C29.2895 3.41535 33.464 3.41535 36.0387 6.23648C36.7404 7.00543 37.264 7.92143 37.5877 8.91754C38.4968 9.27223 39.3328 9.84592 40.0346 10.6149C42.6093 13.436 42.6093 18.0099 40.0346 20.8311C38.1944 22.8474 35.5016 23.4448 33.1572 22.5289L30.5187 25.4198C31.2216 30.5666 29.2476 36.8061 25.3559 41.0702C20.0988 46.8305 13.0546 46.6268 8.07772 41.1736C3.10088 35.7205 2.91499 28.002 8.17214 22.2417C12.098 17.9401 17.8585 15.7768 22.5791 16.6058Z" fill="white"/>
</svg>
