<svg width="17" height="17" viewBox="0 0 17 17" fill="none" xmlns="http://www.w3.org/2000/svg">
<path d="M13.2813 1.79629C15.3731 3.29043 16.7344 5.73418 16.7344 8.5C16.7344 13.0422 13.0555 16.7244 8.51661 16.7344C3.98438 16.7443 0.272272 13.0488 0.265631 8.51328C0.262311 5.74746 1.62364 3.29707 3.71212 1.79961C4.10059 1.52402 4.6418 1.64023 4.87422 2.05527L5.39883 2.98828C5.59473 3.33691 5.50176 3.77852 5.17969 4.01758C3.80176 5.04023 2.92188 6.66055 2.92188 8.49668C2.91856 11.5613 5.39551 14.0781 8.50001 14.0781C11.5414 14.0781 14.0981 11.6145 14.0781 8.46348C14.0682 6.74355 13.258 5.0834 11.817 4.01426C11.4949 3.7752 11.4053 3.33359 11.6012 2.98828L12.1258 2.05527C12.3582 1.64355 12.8961 1.5207 13.2813 1.79629ZM9.82813 8.76562V0.796875C9.82813 0.355273 9.47286 0 9.03126 0H7.96876C7.52715 0 7.17188 0.355273 7.17188 0.796875V8.76562C7.17188 9.20723 7.52715 9.5625 7.96876 9.5625H9.03126C9.47286 9.5625 9.82813 9.20723 9.82813 8.76562Z" fill="white"/>
</svg>
